<?xml version="1.0" encoding="utf-8"?>
<!-- Generator: Adobe Illustrator 16.0.3, SVG Export Plug-In . SVG Version: 6.00 Build 0)  -->
<!DOCTYPE svg PUBLIC "-//W3C//DTD SVG 1.1//EN" "http://www.w3.org/Graphics/SVG/1.1/DTD/svg11.dtd">
<svg version="1.1" id="Capa_1" xmlns="http://www.w3.org/2000/svg" xmlns:xlink="http://www.w3.org/1999/xlink" x="0px" y="0px"
	 width="1024px" height="1024px" viewBox="0 0 1024 1024" enable-background="new 0 0 1024 1024" xml:space="preserve">
<rect display="none" fill="#0E0E0D" width="1024" height="1024"/>
<g id="Capa_2">
</g>
<g>
	<g>
		<path fill="#FFFFFF" d="M434.486,354.927c-25.597,111.398-51.249,304.583-86.12,357.642c-5.428,8.259-86.389,6.858-86.389,6.858
			c-0.983-0.304-12.176,8.929-13.867,5.206c-21.072-46.392-34.868-108.255-54.689-161.627
			c-13.198-35.538-27.114-70.939-43.501-105.146c-10.532-21.984-41.158-61.568-41.024-64.488
			c0.17-3.706,32.772-17.353,50.646-18.438c44.818-2.72,69.242,36.965,80.895,74.982c15.643,51.036,47.119,154.72,47.119,154.72
			c3.027,0.091,62.95-244.376,118.88-314.229c1.389-1.735,2.022,5.46,5.173,6.917c1.386,0.641,6.314-4.628,7.626-3.068
			c1.192,1.417,2.632,15.756,2.632,15.756s7.099,0.686,8.942,6.584c0.711,2.277-2.678,23.438-2.678,23.438s6.054-8.877,6.399-5.462
			C435.197,341.151,435.787,349.269,434.486,354.927z"/>
		<path fill="#FFFFFF" d="M728.416,389.639c-5.886,105.98-110.778,192.515-200.199,234.824c-4.473,2.116-8.97,3.7-13.955,5.518
			c-1.179,3.283-1.764,4.926-2.939,8.212c-3.582,1.479-5.375,2.222-8.958,3.694c-2.137,6.693-3.199,10.041-5.32,16.744
			c-2.187,0.402-3.282,0.604-5.471,1.002c0,0-4.302,8.455-4.379,8.412c-1.703-0.962-0.144-30.338-1.925-31.924
			c-11.774-10.48-71.548-48.684-74.309-94.427c0,0,7.398-21.159,8.774-2.914c1.82,24.13,59.522,22.698,62.437,19.294
			c12.559-14.668-7.986-179.808-10.031-180.861c-2.173-1.119-30.409,22.693-39.735,24.535c-17.97,3.549-31.59-60.407-17.848-78.518
			c12.786-16.851,39.673-27.048,58.906-35.794c35.051-15.939,72.457-28.604,110.721-33.779c35.164-4.756,74.985-3.337,104.43,18.936
			C724.358,299.63,730.734,347.892,728.416,389.639z M529.55,542.888c5.347-8.372-0.387-44.172-0.134-66.259
			c-1.506,22.767-2.986,45.535-4.446,68.305c0.509-0.227,1.528-0.684,2.546-1.138C528.024,543.568,529.295,543.287,529.55,542.888z
			 M545.163,349.315c-15.198,18.456-6.459,188.965-6.459,188.965c4.458,2.828,67.497-45.584,95.613-74.149
			c19.952-20.271,47.935-47.657,51.24-76.873c2.539-22.439-23.783-35.034-42.019-40.12
			C611.396,338.173,552.306,340.641,545.163,349.315z"/>
		<path fill="#FFFFFF" d="M920.403,230.164c-39.939,2.419-110.003,10.983-120.895,23.833c-3.966,4.679-4.876,41.525-4.388,41.919
			c5.059,4.079,113.994-29.532,118.502-24.85c0.478,0.496-5.236,10.362-5.236,10.362c-1.091,4.656-1.635,6.984-2.722,11.646
			c-6.852,3.776-10.27,5.721-17.092,9.712c2.504-0.082,3.755-0.116,6.258-0.171c-7.111,4.708-10.658,7.123-17.733,12.061
			c0.033,1.91,0.049,2.863,0.082,4.772c-7.691,2.725-11.531,4.152-19.205,7.125c-1.662,2.573-2.493,3.863-4.151,6.448
			c-8.995,5.39-18.275,12.03-26.956,16.222c-12.233,5.908-35.738,12.653-40.144,18.87c-10.64,15.017-8.923,68.799-13.73,103.151
			c-1.313-1.15-1.971-1.722-3.286-2.869c-1.122,5.216-1.681,7.825-2.797,13.048c-2.455,1.366-3.678,2.053-6.131,3.438
			c-3.077,8.414-4.61,12.632-7.661,21.089c-6.022,5.562-9.027,8.374-15.021,14.055c-3.66,6.018-5.485,9.04-9.124,15.107
			c-1.741-0.334-2.613-0.5-4.356-0.827c-1.86,5.813-2.788,8.726-4.638,14.554c0,0-6.063,8.451-6.249,8.335
			c-6.17-3.842,0.357-74.376,1.062-110.993c1.073-55.774,2.194-111.588,1.276-167.373c-2.536,0.203-3.807,0.308-6.345,0.523
			c1.601-2.899,2.399-4.347,4.005-7.238c-4.013,0.071-6.016,0.115-10.034,0.214c-5.732,0.652-8.603,0.992-14.344,1.699
			c2.006-2.666,3.012-3.997,5.022-6.652c-3.115-1.577-4.678-2.362-7.804-3.929c3.545-3.976,5.32-5.956,8.877-9.901
			c-8.391,2.51-12.588,3.797-20.981,6.426c0,0-4.772-6.524-4.004-7.691c4.259-6.47,40.501-14.903,44.001-20.646
			c2.701-4.432-1.647-21.024-3.086-27.427c-0.41-1.824,2.479-7.215,7.986-10.319c22.313-12.577,67.254,1.385,75.844,5.005
			c16.588,6.991,134.023-50.721,159.476-42.977C974.641,161.988,957.087,227.942,920.403,230.164z"/>
	</g>
</g>
<g>
</g>
<g>
</g>
<g>
</g>
<g>
</g>
<g>
</g>
<g>
</g>
<g>
</g>
<g>
</g>
<g>
</g>
<g>
</g>
<g>
</g>
<g>
</g>
<g>
</g>
<g>
</g>
<g>
</g>
</svg>
